<?xml version="1.0" encoding="utf-8"?>
<!-- Generator: Adobe Illustrator 25.2.3, SVG Export Plug-In . SVG Version: 6.00 Build 0)  -->
<svg version="1.1" xmlns="http://www.w3.org/2000/svg" xmlns:xlink="http://www.w3.org/1999/xlink" x="0px" y="0px"
	 viewBox="0 0 512 512" style="enable-background:new 0 0 512 512;" xml:space="preserve">
<style type="text/css">
	.st0{fill:#1C1C1C;}
</style>
<g id="Layer_2">
</g>
<g id="Layer_1">
	<path class="st0" d="M103.1,253.8c37.3,70.4,98,127,170.7,159.4c4,1.8,8.3,3.5,13.1,3.5c0.8,0,1.7-0.1,2.6-0.2
		c6.1-0.8,10.7-4.2,14.5-7.4c52.9-44,80.7-109.7,105.2-167.6c9.9-23.4,21.1-49.9,20.1-78c-1-27.8-17.7-59.6-47.8-66.7
		c-32.6-7.6-61.6,16.1-80.2,37.3c-4,4.5-7.9,8.7-11.7,12.9c-11.2,12.2-21.9,23.8-30.8,39.1l-2.4-1.6c-7.5-6-13.5-10.4-19.3-14.8
		c-7.6-5.6-14.7-10.9-25-19.5c-2.3-1.9-4.7-4-7.1-6c-18.6-16-39.8-34.1-66.3-31.5c-32,3.1-52.6,33.9-55.8,61.3
		C79.5,204.9,92.8,234.4,103.1,253.8z"/>
</g>
</svg>
